<?xml version="1.0" encoding="utf-8"?>
<!-- Generator: Adobe Illustrator 17.1.0, SVG Export Plug-In . SVG Version: 6.00 Build 0)  -->
<!DOCTYPE svg PUBLIC "-//W3C//DTD SVG 1.1//EN" "http://www.w3.org/Graphics/SVG/1.1/DTD/svg11.dtd">
<svg version="1.1" id="Layer_2" xmlns="http://www.w3.org/2000/svg" xmlns:xlink="http://www.w3.org/1999/xlink" x="0px" y="0px"
	 viewBox="0 252 468 468" enable-background="new 0 252 468 468" xml:space="preserve">
<circle fill="#FFFFFF" cx="234" cy="481.7" r="227.4"/>
<circle fill="none" stroke="#879999" stroke-width="10.1862" stroke-miterlimit="10" cx="234" cy="485.1" r="227.4"/>
<rect x="124.1" y="574" fill="#EDEDED" stroke="#879999" stroke-width="10.1825" stroke-miterlimit="10" width="219.7" height="33.5"/>
<path fill="#C8D7D4" stroke="#879999" stroke-width="10.1825" stroke-miterlimit="10" d="M358,556.2v17.5H105.2v-17.5
	c0-22.9,9.6-41.5,21.4-41.5h82.2v-57.3c-7.9-4.8-13-12-13-20.1l-3-66.4c0-14.4,15.9-26,35.5-26h15.8c19.6,0,35.5,11.6,35.5,26
	l-3,66.4c0,8.1-5,15.3-13,20.1v57.3h72.9C348.4,514.7,358,533.3,358,556.2z"/>
<path fill="none" stroke="#879999" stroke-width="6.5824" stroke-miterlimit="10" d="M211.4,383.5c0-11.4,12.6-20.7,28.2-20.7"/>
</svg>
