<?xml version="1.0" encoding="utf-8"?>
<!-- Generator: Adobe Illustrator 17.1.0, SVG Export Plug-In . SVG Version: 6.00 Build 0)  -->
<!DOCTYPE svg PUBLIC "-//W3C//DTD SVG 1.1//EN" "http://www.w3.org/Graphics/SVG/1.1/DTD/svg11.dtd">
<svg version="1.1" xmlns="http://www.w3.org/2000/svg" xmlns:xlink="http://www.w3.org/1999/xlink" x="0px" y="0px" width="180.6px"
	 height="101.3px" viewBox="53.7 57.3 180.6 101.3" enable-background="new 53.7 57.3 180.6 101.3" xml:space="preserve">
<g id="Layer_2">
	<rect x="-236.7" y="169.3" fill="#C9C9C9" width="101.4" height="15.5"/>
	<g>
		<path fill="#43535F" d="M-132.8,187.3h-106.4v-20.5h106.4V187.3z M-234.2,182.3h96.4v-10.5h-96.4V182.3z"/>
	</g>
	<path fill="#AFA376" d="M-127.7,161.1v8.1h-116.7v-8.1c0-10.6,4.4-19.2,9.9-19.2h37.9v-26.4c-3.6-2.2-6-5.5-6-9.3l-1.4-30.6
		c0-6.6,7.3-12,16.4-12h7.3c9,0,16.4,5.4,16.4,12l-1.4,30.6c0,3.7-2.3,7.1-6,9.3V142h33.6C-132.1,142-127.7,150.6-127.7,161.1z"/>
	<g>
		<path fill="#43535F" d="M-125.2,171.7h-121.7v-10.6c0-12.1,5.4-21.7,12.4-21.7h35.4v-22.6c-3.8-2.7-6-6.5-6-10.6l-1.4-30.7
			c0-8,8.5-14.5,18.9-14.5h7.3c10.4,0,18.9,6.5,18.9,14.5l0,0.1l-1.4,30.6c0,4.1-2.2,7.9-6,10.6v22.6h31.1c7.1,0,12.4,9.3,12.4,21.7
			V171.7z M-241.9,166.7h111.7v-5.6c0-9.5-3.9-16.7-7.4-16.7h-36.1v-30.4l1.2-0.7c3-1.8,4.8-4.4,4.8-7.1l0-0.1l1.4-30.6
			c0-5.2-6.3-9.4-13.9-9.4h-7.3c-7.6,0-13.8,4.2-13.9,9.4l1.4,30.7c0,2.7,1.7,5.3,4.8,7.1l1.2,0.7v30.4h-40.4
			c-3.5,0-7.4,7.1-7.4,16.7V166.7z"/>
	</g>
	<g>
		<path fill="#43535F" d="M-195,81.4h-3c0-6.1,6.5-11.1,14.5-11.1v3C-189.8,73.4-195,77-195,81.4z"/>
	</g>
	<ellipse fill="#9EAEB7" cx="-153.1" cy="-41.2" rx="63.1" ry="65.4"/>
	<g>
		<path fill="#43535F" d="M-157.5,26.8c-37.9,0-68.8-30.8-68.8-68.7s30.8-68.8,68.8-68.8S-88.7-79.9-88.7-42S-119.6,26.8-157.5,26.8
			z M-157.5-106.8c-35.7,0-64.8,29.1-64.8,64.8s29.1,64.8,64.8,64.8S-92.7-6.3-92.7-42S-121.8-106.8-157.5-106.8z"/>
	</g>
	<polygon fill="#43535F" points="-173.3,-74.6 -173.3,-9.4 -121.7,-42 	"/>
	<ellipse fill="#9EAEB7" cx="147.8" cy="108" rx="29.1" ry="31.3"/>
	<polygon fill="#43535F" points="137.1,92 137.1,123.2 161.8,107.6 	"/>
	<g>
		<path fill="#43535F" d="M144,140.9c-18.2,0-32.9-14.8-32.9-32.9s14.8-32.9,32.9-32.9s32.9,14.8,32.9,32.9S162.2,140.9,144,140.9z
			 M144,78.3c-16.4,0-29.7,13.3-29.7,29.7s13.3,29.7,29.7,29.7s29.7-13.3,29.7-29.7S160.4,78.3,144,78.3z"/>
	</g>
</g>
<g id="Layer_1">
	<g>
		<path fill="#43535F" d="M200.6,158.4H87.2c-7.2,0-13.1-5.9-13.1-13.1V70.7c0-7.2,5.9-13.1,13.1-13.1h113.4
			c7.2,0,13.1,5.9,13.1,13.1v74.7C213.6,152.5,207.8,158.4,200.6,158.4z M87.2,62.6c-4.4,0-8.1,3.6-8.1,8.1v74.7
			c0,4.4,3.6,8.1,8.1,8.1h113.4c4.4,0,8.1-3.6,8.1-8.1V70.7c0-4.4-3.6-8.1-8.1-8.1H87.2z"/>
	</g>
</g>
<g id="Samantha_Nickerson_Logo">
</g>
</svg>
