<?xml version="1.0" encoding="utf-8"?>
<!-- Generator: Adobe Illustrator 17.1.0, SVG Export Plug-In . SVG Version: 6.00 Build 0)  -->
<!DOCTYPE svg PUBLIC "-//W3C//DTD SVG 1.1//EN" "http://www.w3.org/Graphics/SVG/1.1/DTD/svg11.dtd">
<svg version="1.1" xmlns="http://www.w3.org/2000/svg" xmlns:xlink="http://www.w3.org/1999/xlink" x="0px" y="0px"
	 viewBox="0 252 468 468" enable-background="new 0 252 468 468" xml:space="preserve">
<g id="Layer_1" display="none">
	<circle display="inline" fill="#333333" cx="234" cy="486" r="234"/>
	<g display="inline">
		<line fill="none" stroke="#C4C4C4" stroke-width="8" stroke-miterlimit="10" x1="109.5" y1="361.5" x2="358.5" y2="610.5"/>
		<line fill="none" stroke="#C4C4C4" stroke-width="8" stroke-miterlimit="10" x1="358.5" y1="361.5" x2="109.5" y2="610.5"/>
	</g>
</g>
<g id="Layer_2">
	<circle fill="#FFFFFF" cx="234" cy="481.7" r="227.4"/>
	<path fill="#EDEDED" d="M352.6,396.8l-230.4-0.1c-13.9,0-25.1,11.2-25.1,25.1l0,10.8h280.7l0-10.8
		C377.7,408,366.5,396.8,352.6,396.8z"/>
	<circle fill="none" stroke="#879999" stroke-width="10.1862" stroke-miterlimit="10" cx="234" cy="485.1" r="227.4"/>
	<path fill="none" stroke="#879999" stroke-width="10.1862" stroke-miterlimit="10" d="M97.1,432.7v-10.5
		c0-14.2,11.5-25.8,25.8-25.8h110.7"/>
	<path fill="none" stroke="#879999" stroke-width="10.1862" stroke-miterlimit="10" d="M355.7,396.8c12.5,1.8,22,12.5,22,25.5v10.5"
		/>
	<polyline fill="#C8D7D4" stroke="#879999" stroke-width="9.7886" stroke-miterlimit="10" points="233.5,432.7 233.5,382.9 
		355.7,382.9 355.7,432.7 	"/>
	<rect x="125.6" y="386.3" fill="none" stroke="#879999" stroke-width="9.7886" stroke-miterlimit="10" width="35.1" height="9"/>
	
		<rect x="97.1" y="432.7" fill="#C8D7D4" stroke="#879999" stroke-width="10.1862" stroke-miterlimit="10" width="280.7" height="144.9"/>
	
		<rect x="250.5" y="398.4" fill="#FFFFFF" stroke="#879999" stroke-width="6.2249" stroke-miterlimit="10" width="46.4" height="18.8"/>
	
		<rect x="311" y="398.4" fill="#FFFFFF" stroke="#879999" stroke-width="6.2249" stroke-miterlimit="10" width="27.6" height="18.8"/>
	<circle fill="none" stroke="#879999" stroke-width="10.1862" stroke-miterlimit="10" cx="291.2" cy="505.1" r="65.4"/>
	<circle fill="#FFFFFF" stroke="#879999" stroke-width="6.2249" stroke-miterlimit="10" cx="291.2" cy="505.1" r="39.9"/>
	<path fill="none" stroke="#879999" stroke-width="6.2249" stroke-miterlimit="10" d="M268.3,505.1c0-12.7,10.3-22.9,22.9-22.9"/>
	<path fill="none" stroke="#879999" stroke-width="10.1862" stroke-miterlimit="10" d="M365.4,523h-0.2c-4.8,0-8.6-3.9-8.6-8.6V496
		c0-4.8,3.9-8.6,8.6-8.6h0.2c4.8,0,8.6,3.9,8.6,8.6v18.4C374,519.1,370.2,523,365.4,523z"/>
	<line fill="none" stroke="#879999" stroke-width="8.0979" stroke-miterlimit="10" x1="134.4" y1="454.2" x2="134.4" y2="556.1"/>
	<line fill="none" stroke="#879999" stroke-width="6.2249" stroke-miterlimit="10" x1="151.9" y1="464.6" x2="151.9" y2="545.6"/>
</g>
</svg>
