<?xml version="1.0" encoding="utf-8"?>
<!-- Generator: Adobe Illustrator 17.1.0, SVG Export Plug-In . SVG Version: 6.00 Build 0)  -->
<!DOCTYPE svg PUBLIC "-//W3C//DTD SVG 1.1//EN" "http://www.w3.org/Graphics/SVG/1.1/DTD/svg11.dtd">
<svg version="1.1" xmlns="http://www.w3.org/2000/svg" xmlns:xlink="http://www.w3.org/1999/xlink" x="0px" y="0px"
	 viewBox="0 0 500 500" enable-background="new 0 0 500 500" xml:space="preserve">
<g id="Layer_1" display="none">
	<circle display="inline" fill="#231F20" cx="250" cy="250" r="250"/>
	
		<text transform="matrix(1 0 0 1 104.4424 279)" display="inline" fill="#FFFFFF" font-family="'HelveticaNeue-Bold'" font-size="120">Logo</text>
</g>
<g id="Layer_2">
	<circle fill="#333333" cx="-640.4" cy="247.5" r="245.2"/>
	<g>
		<path fill="#918E8D" d="M-697.5,144.9c-0.2-2.9-2-28.6,13.4-49.4c11-14.8,27.2-22.7,48.3-23.4c0,0,0,0,0,0
			c10.1,0,39.6,0,50.5,27.1l-26.6,12.5c-2-2.6-14-5.8-23.5-5.8c-12.3,0.5-21.5,4.4-27,11.7c-7.5,9.9-6.7,27.2-6.7,27.4H-697.5z"/>
	</g>
	<g>
		<path fill="#FFFFFF" d="M-584.3,349.5h-28.6c0-75.8,0-78.8-46.1-127.9c-3.4-3.6-6.7-7.2-10-10.9v138.9h-28.6V142l28.6,0
			c0,7.5,1.2,18,3,21.6c5.4,11.1,16,23,26.5,34.1c10.8,11.6,19.6,21.3,26.6,30V142h28.6V349.5z"/>
	</g>
	<g>
		<path fill="#918E8D" d="M-584.3,349.5c0,2.8,0,30.5-13.6,49.4c-10.8,15-27.2,22.7-48.3,23.4c0,0,1.6,0,1.6,0
			c-10.1,0-39.6,0-50.5-27.1l26.6-12.5c2,2.6,12.3,5.9,21.8,5.8c34.7-0.4,33.7-38.9,33.7-39.1H-584.3z"/>
	</g>
	<g>
		<path fill="#918E8D" d="M201.3,152.6c-0.2-2.7-1.9-27.2,12.8-47C224.5,91.5,240,84,260,83.2c0,0,0,0,0,0c9.7,0,37.7,0,48.1,25.8
			l-25.3,11.9c-1.9-2.5-13.3-5.5-22.4-5.5c-11.7,0.4-20.5,4.2-25.7,11.2c-7.2,9.4-6.3,25.9-6.3,26.1H201.3z"/>
	</g>
	<g>
		<path fill="#333333" d="M309.1,347.4h-27.2c0-72.2,0-75.1-43.9-121.8c-3.2-3.4-6.4-6.9-9.5-10.4v132.3h-27.2V149.8l27.2,0
			c0,7.1,1.2,17.1,2.9,20.6c5.1,10.6,15.3,21.9,25.2,32.5c10.3,11,18.6,20.2,25.3,28.6v-81.7h27.2V347.4z"/>
	</g>
	<g>
		<path fill="#918E8D" d="M309.1,347.4c0,2.7,0,29-12.9,47c-10.3,14.3-25.9,21.6-46,22.3c0,0,1.6,0,1.5,0c-9.7,0-37.7,0-48.1-25.8
			l25.3-11.9c1.9,2.5,11.7,5.6,20.8,5.5c33.1-0.4,32.1-37.1,32.1-37.2H309.1z"/>
	</g>
	<g>
		<path fill="#333333" d="M475,25v450H25.9V25H475 M500,0H0.9v500H500V0L500,0z"/>
	</g>
</g>
</svg>
