<?xml version="1.0" encoding="utf-8"?>
<!-- Generator: Adobe Illustrator 17.1.0, SVG Export Plug-In . SVG Version: 6.00 Build 0)  -->
<!DOCTYPE svg PUBLIC "-//W3C//DTD SVG 1.1//EN" "http://www.w3.org/Graphics/SVG/1.1/DTD/svg11.dtd">
<svg version="1.1" xmlns="http://www.w3.org/2000/svg" xmlns:xlink="http://www.w3.org/1999/xlink" x="0px" y="0px"
	 viewBox="0 252 468 468" enable-background="new 0 252 468 468" xml:space="preserve">
<g id="Layer_1">
	<g id="Layer_1_1_" display="none">
		<circle display="inline" fill="#231F20" cx="234" cy="486" r="234"/>
		
			<text transform="matrix(1 0 0 1 97.7583 513.1436)" display="inline" fill="#FFFFFF" font-family="'HelveticaNeue-Bold'" font-size="112.32">Logo</text>
	</g>
	<g id="Layer_2">
		<circle fill="#333333" cx="-599.4" cy="483.7" r="229.5"/>
		<g>
			<path fill="#918E8D" d="M-652.9,387.6c-0.2-2.7-1.9-26.8,12.5-46.2c10.3-13.9,25.5-21.2,45.2-21.9l0,0c9.5,0,37.1,0,47.3,25.4
				l-24.9,11.7c-1.9-2.4-13.1-5.4-22-5.4c-11.5,0.5-20.1,4.1-25.3,11c-7,9.3-6.3,25.5-6.3,25.6L-652.9,387.6L-652.9,387.6z"/>
		</g>
		<g>
			<path fill="#FFFFFF" d="M-546.9,579.1h-26.8c0-70.9,0-73.8-43.1-119.7c-3.2-3.4-6.3-6.7-9.4-10.2v130H-653V384.9h26.8
				c0,7,1.1,16.8,2.8,20.2c5.1,10.4,15,21.5,24.8,31.9c10.1,10.9,18.3,19.9,24.9,28.1v-80.2h26.8V579.1z"/>
		</g>
		<g>
			<path fill="#918E8D" d="M-546.9,579.1c0,2.6,0,28.5-12.7,46.2c-10.1,14-25.5,21.2-45.2,21.9h1.5c-9.5,0-37.1,0-47.3-25.4
				l24.9-11.7c1.9,2.4,11.5,5.5,20.4,5.4c32.5-0.4,31.5-36.4,31.5-36.6L-546.9,579.1L-546.9,579.1z"/>
		</g>
		<g>
			<path fill="#AFA376" d="M186.4,394.8c-0.2-2.5-1.8-25.5,12-44c9.7-13.2,24.2-20.2,43-21l0,0c9.1,0,35.3,0,45,24.1l-23.7,11.1
				c-1.8-2.3-12.4-5.1-21-5.1c-11,0.4-19.2,3.9-24.1,10.5c-6.7,8.8-5.9,24.2-5.9,24.4L186.4,394.8L186.4,394.8z"/>
		</g>
		<g>
			<path fill="#27282D" d="M287.3,577.2h-25.5c0-67.6,0-70.3-41.1-114c-3-3.2-6-6.5-8.9-9.7v123.8h-25.5v-185h25.5
				c0,6.6,1.1,16,2.7,19.3c4.8,9.9,14.3,20.5,23.6,30.4c9.6,10.3,17.4,18.9,23.7,26.8v-76.5h25.5V577.2z"/>
		</g>
		<g>
			<path fill="#AFA376" d="M287.3,577.2c0,2.5,0,27.1-12.1,44c-9.6,13.4-24.2,20.2-43.1,20.9c0,0,1.5,0,1.4,0c-9.1,0-35.3,0-45-24.1
				l23.7-11.1c1.8,2.3,11,5.2,19.5,5.1c31-0.4,30-34.7,30-34.8L287.3,577.2L287.3,577.2z"/>
		</g>
		<g>
			<path fill="#27282D" d="M444.6,275.4v421.2H24.2V275.4H444.6 M468,252H0.8v468H468V252L468,252z"/>
		</g>
	</g>
</g>
<g id="Layer_2_1_">
</g>
</svg>
