<?xml version="1.0" encoding="utf-8"?>
<!-- Generator: Adobe Illustrator 17.1.0, SVG Export Plug-In . SVG Version: 6.00 Build 0)  -->
<!DOCTYPE svg PUBLIC "-//W3C//DTD SVG 1.1//EN" "http://www.w3.org/Graphics/SVG/1.1/DTD/svg11.dtd">
<svg version="1.1" xmlns="http://www.w3.org/2000/svg" xmlns:xlink="http://www.w3.org/1999/xlink" x="0px" y="0px" width="288px"
	 height="216px" viewBox="0 0 288 216" enable-background="new 0 0 288 216" xml:space="preserve">
<g id="Layer_1">
	<g id="Layer_1_2_">
		<g id="Layer_1_1_" display="none">
			<circle display="inline" fill="#231F20" cx="144" cy="360" r="108"/>
			
				<text transform="matrix(1 0 0 1 81.1191 372.5282)" display="inline" fill="#FFFFFF" font-family="'HelveticaNeue-Bold'" font-size="51.84">Logo</text>
		</g>
		<g id="Layer_2">
			<circle fill="#333333" cx="-241.2" cy="627.4" r="105.9"/>
			<g>
				<path fill="#918E8D" d="M-265.9,583c-0.1-1.2-0.9-12.4,5.8-21.3c4.8-6.4,11.8-9.8,20.9-10.1l0,0c4.4,0,17.1,0,21.8,11.7
					l-11.5,5.4c-0.9-1.1-6-2.5-10.2-2.5c-5.3,0.2-9.3,1.9-11.7,5.1c-3.2,4.3-2.9,11.8-2.9,11.8L-265.9,583L-265.9,583z"/>
			</g>
			<g>
				<path fill="#FFFFFF" d="M-217,671.4h-12.4c0-32.7,0-34.1-19.9-55.2c-1.5-1.6-2.9-3.1-4.3-4.7v60H-266v-89.7h12.4
					c0,3.2,0.5,7.8,1.3,9.3c2.4,4.8,6.9,9.9,11.4,14.7c4.7,5,8.4,9.2,11.5,13v-37h12.4V671.4z"/>
			</g>
			<g>
				<path fill="#918E8D" d="M-217,671.4c0,1.2,0,13.2-5.9,21.3c-4.7,6.5-11.8,9.8-20.9,10.1h0.7c-4.4,0-17.1,0-21.8-11.7l11.5-5.4
					c0.9,1.1,5.3,2.5,9.4,2.5c15-0.2,14.5-16.8,14.5-16.9L-217,671.4L-217,671.4z"/>
			</g>
			<g>
				<path fill="#AFA376" d="M473.4,539.7c-0.1-1.2-0.8-11.8,5.5-20.3c4.5-6.1,11.2-9.3,19.8-9.7l0,0c4.2,0,16.3,0,20.8,11.1
					l-10.9,5.1c-0.8-1.1-5.7-2.4-9.7-2.4c-5.1,0.2-8.9,1.8-11.1,4.8c-3.1,4.1-2.7,11.2-2.7,11.3H473.4L473.4,539.7z"/>
			</g>
			<g>
				<path fill="#27282D" d="M519.9,623.9h-11.8c0-31.2,0-32.4-19-52.6c-1.4-1.5-2.8-3-4.1-4.5V624h-11.8v-85.4h11.8
					c0,3,0.5,7.4,1.2,8.9c2.2,4.6,6.6,9.5,10.9,14c4.4,4.8,8,8.7,10.9,12.4v-35.3h11.8V623.9z"/>
			</g>
			<g>
				<path fill="#AFA376" d="M519.9,623.9c0,1.2,0,12.5-5.6,20.3c-4.4,6.2-11.2,9.3-19.9,9.6c0,0,0.7,0,0.6,0
					c-4.2,0-16.3,0-20.8-11.1l10.9-5.1c0.8,1.1,5.1,2.4,9,2.4c14.3-0.2,13.8-16,13.8-16.1H519.9L519.9,623.9z"/>
			</g>
			<g>
				<path fill="#B09852" d="M240.6,279.3v194.4h-194V279.3H240.6 M251.4,268.5H35.8v216h215.6V268.5L251.4,268.5z"/>
			</g>
		</g>
	</g>
	<g id="Layer_2_1_">
	</g>
	<rect x="59" y="0" fill="#AFA376" width="170.1" height="13.1"/>
</g>
<g id="Samantha_Nickerson_Logo">
	<g>
		<g>
			<path fill="#43535F" d="M143.5,71.9c-8.9,0-16.2,1.6-21.9,4.9c-5.7,3.3-8.6,8.2-8.6,14.9c0,6.6,2.9,11.7,8.6,15.2
				c5.7,3.5,17.9,7.3,36.5,11.4c18.6,4.1,32.6,9.8,42,17.1c9.4,7.3,14.1,18.2,14.1,32.4s-6,25.9-17.9,34.8
				c-11.9,8.9-27.6,13.4-47,13.4c-28.4,0-53.6-8.8-75.5-26.5L93,168.7c18.3,14.4,37.4,21.5,57.1,21.5c9.9,0,17.7-1.9,23.5-5.7
				c5.8-3.8,8.7-8.9,8.7-15.2c0-6.3-2.7-11.2-8.2-14.8c-5.5-3.5-14.8-6.7-28.2-9.6c-13.3-2.9-23.4-5.5-30.4-8
				c-6.9-2.4-13.1-5.6-18.4-9.5c-10.7-7.3-16.1-18.6-16.1-33.7c0-15.1,6.1-26.8,18.3-35c12.2-8.2,27.3-12.3,45.3-12.3
				c11.6,0,23.1,1.7,34.5,5.2c11.4,3.4,21.3,8.3,29.6,14.5l-16.4,20.9c-5.4-4.4-12.6-8-21.8-10.8C161.4,73.3,152.4,71.9,143.5,71.9z
				"/>
		</g>
	</g>
</g>
</svg>
