<?xml version="1.0" encoding="utf-8"?>
<!-- Generator: Adobe Illustrator 17.1.0, SVG Export Plug-In . SVG Version: 6.00 Build 0)  -->
<!DOCTYPE svg PUBLIC "-//W3C//DTD SVG 1.1//EN" "http://www.w3.org/Graphics/SVG/1.1/DTD/svg11.dtd">
<svg version="1.1" id="Layer_1" xmlns="http://www.w3.org/2000/svg" xmlns:xlink="http://www.w3.org/1999/xlink" x="0px" y="0px"
	 width="180.6px" height="100px" viewBox="53.7 58 180.6 100" enable-background="new 53.7 58 180.6 100" xml:space="preserve">
<g id="Layer_2">
	<circle fill="#FFFFFF" cx="144" cy="607.9" r="104.4"/>
	<path fill="#EDEDED" d="M198.4,569l-105.7,0c-6.4,0-11.5,5.1-11.5,11.5v5H210v-5C209.9,574.1,204.8,569,198.4,569z"/>
	<circle fill="none" stroke="#879999" stroke-width="10.1862" stroke-miterlimit="10" cx="144" cy="609.5" r="104.4"/>
	<path fill="none" stroke="#879999" stroke-width="10.1862" stroke-miterlimit="10" d="M81.2,585.5v-4.8c0-6.5,5.3-11.8,11.8-11.8
		h50.8"/>
	<path fill="none" stroke="#879999" stroke-width="10.1862" stroke-miterlimit="10" d="M199.8,569c5.7,0.8,10.1,5.7,10.1,11.7v4.8"
		/>
	<polyline fill="#C8D7D4" stroke="#879999" stroke-width="9.7886" stroke-miterlimit="10" points="143.8,585.5 143.8,562.6 
		199.8,562.6 199.8,585.5 	"/>
	<rect x="94.3" y="564.2" fill="none" stroke="#879999" stroke-width="9.7886" stroke-miterlimit="10" width="16.1" height="4.1"/>
	
		<rect x="81.2" y="585.5" fill="#C8D7D4" stroke="#879999" stroke-width="10.1862" stroke-miterlimit="10" width="128.8" height="66.5"/>
	
		<rect x="151.6" y="569.7" fill="#FFFFFF" stroke="#879999" stroke-width="6.2249" stroke-miterlimit="10" width="21.3" height="8.6"/>
	
		<rect x="179.3" y="569.7" fill="#FFFFFF" stroke="#879999" stroke-width="6.2249" stroke-miterlimit="10" width="12.7" height="8.6"/>
	<circle fill="none" stroke="#879999" stroke-width="10.1862" stroke-miterlimit="10" cx="170.2" cy="618.7" r="30"/>
	<circle fill="#FFFFFF" stroke="#879999" stroke-width="6.2249" stroke-miterlimit="10" cx="170.2" cy="618.7" r="18.3"/>
	<path fill="none" stroke="#879999" stroke-width="6.2249" stroke-miterlimit="10" d="M159.7,618.7c0-5.8,4.7-10.5,10.5-10.5"/>
	<path fill="none" stroke="#879999" stroke-width="10.1862" stroke-miterlimit="10" d="M204.3,626.9L204.3,626.9c-2.3,0-4-1.8-4-3.9
		v-8.4c0-2.2,1.8-3.9,3.9-3.9h0.1c2.2,0,3.9,1.8,3.9,3.9v8.4C208.2,625.1,206.5,626.9,204.3,626.9z"/>
	<line fill="none" stroke="#879999" stroke-width="8.0979" stroke-miterlimit="10" x1="98.3" y1="595.3" x2="98.3" y2="642.1"/>
	<line fill="none" stroke="#879999" stroke-width="6.2249" stroke-miterlimit="10" x1="106.3" y1="600.1" x2="106.3" y2="637.3"/>
</g>
<path fill="#EDEDED" d="M197.5,71.2l-100,0c-6,0-10.9,4.8-10.9,10.8v4.7h121.9V82C208.4,76.1,203.5,71.2,197.5,71.2z"/>
<g>
	<path fill="#43535F" d="M82.1,86.7h-5v-4.8c0-7.9,6.4-14.3,14.3-14.3h50.8v5H91.4c-5.1,0-9.3,4.2-9.3,9.3V86.7z"/>
</g>
<g>
	<path fill="#43535F" d="M210.9,86.8h-5v-4.8c0-4.7-3.3-8.6-8-9.2l0.7-4.9c7.1,1,12.2,7,12.2,14.2V86.8z"/>
</g>
<polyline fill="#D1E0E5" points="142.2,86.7 142.2,63.9 198.3,63.9 198.3,86.7 "/>
<g>
	<polygon fill="#43535F" points="200.8,85.7 195.8,85.7 195.8,65.3 144.7,65.3 144.7,85.7 139.7,85.7 139.7,60.3 200.8,60.3 	"/>
</g>
<rect x="92.7" y="65.4" fill="#43535F" width="16.1" height="4.1"/>
<rect x="87" y="86.7" fill="#9EAEB7" width="121.4" height="66.5"/>
<g>
	<path fill="#43535F" d="M210.9,155.7H77.1V84.2h133.8V155.7z M82.1,150.7h123.8V89.2H82.1V150.7z"/>
</g>
<rect x="150" y="71" fill="#FFFFFF" width="21.3" height="8.6"/>
<rect x="177.8" y="71" fill="#FFFFFF" width="12.7" height="8.6"/>
<g>
	<path fill="#43535F" d="M172.8,81.1h-24.3V69.5h24.3V81.1z M151.5,78.1h18.3v-5.6h-18.3V78.1z"/>
</g>
<g>
	<path fill="#43535F" d="M191.9,81.1h-15.7V69.5h15.7V81.1z M179.3,78.1h9.7v-5.6h-9.7V78.1z"/>
</g>
<g>
	<path fill="#43535F" d="M168.7,152.5c-17.9,0-32.5-14.6-32.5-32.5c0-17.9,14.6-32.5,32.5-32.5s32.5,14.6,32.5,32.5
		C201.2,137.9,186.6,152.5,168.7,152.5z M168.7,92.4c-15.2,0-27.5,12.3-27.5,27.5s12.3,27.5,27.5,27.5s27.5-12.3,27.5-27.5
		S183.8,92.4,168.7,92.4z"/>
</g>
<circle fill="#FFFFFF" cx="168.7" cy="119.9" r="18.3"/>
<g>
	<path fill="#43535F" d="M168.7,139.8c-10.9,0-19.8-8.9-19.8-19.8s8.9-19.8,19.8-19.8s19.8,8.9,19.8,19.8S179.6,139.8,168.7,139.8z
		 M168.7,103.1c-9.3,0-16.8,7.5-16.8,16.8s7.5,16.8,16.8,16.8s16.8-7.5,16.8-16.8S177.9,103.1,168.7,103.1z"/>
</g>
<g>
	<path fill="#43535F" d="M159.7,119.9h-3c0-6.6,5.4-12,12-12v3C163.7,110.9,159.7,115,159.7,119.9z"/>
</g>
<path fill="#43535F" d="M202.7,128.2L202.7,128.2c-2.3,0-4-1.8-4-3.9v-8.4c0-2.2,1.8-3.9,3.9-3.9h0.1c2.2,0,3.9,1.8,3.9,3.9v8.4
	C206.7,126.4,204.9,128.2,202.7,128.2z"/>
<g>
	<rect x="95.2" y="96.6" fill="#43535F" width="3" height="46.8"/>
</g>
<g>
	<rect x="103.2" y="101.4" fill="#43535F" width="3" height="37.2"/>
</g>
<path fill="#9EAEB7" d="M-198.4,162.5v-69v2.5v-6.4c0-6.4,5.1-11.5,11.5-11.5H-74c6.4,0,11.5,5.1,11.5,11.5v6.4v-2.5v69"/>
<g>
	<path fill="#43535F" d="M-60,162.5h-5V89.6c0-5-4.1-9-9-9h-112.8c-5,0-9,4.1-9,9v72.9h-5V89.6c0-7.7,6.3-14,14-14H-74
		c7.7,0,14,6.3,14,14V162.5z"/>
</g>
<path fill="#FFFFFF" d="M-72.5,101.7v-4.9c0-4.9-4.4-8.8-9.8-8.8h-96.1c-5.4,0-9.8,4-9.8,8.8v4.9v-1.9v53.5h115.8V99.7"/>
<g>
	<path fill="#43535F" d="M-71,154.8h-118.8v-58c0-5.7,5.1-10.3,11.3-10.3h96.1c6.2,0,11.3,4.6,11.3,10.3V154.8z M-186.8,151.8H-74
		v-55c0-4-3.7-7.3-8.3-7.3h-96.1c-4.6,0-8.3,3.3-8.3,7.3V151.8z"/>
</g>
<path fill="#D1E0E5" d="M-43.8,165.5l-10.6,8.9c-0.3,0.3-0.7,0.4-1.1,0.4h-149.9c-0.4,0-0.8-0.1-1.1-0.4l-10.6-8.9
	c-1.2-1-0.5-3,1.1-3h71.4c1.4,1.4,3.4,2.3,5.4,2.3h17.5c2.1,0,4-0.9,5.4-2.3h71.4C-43.3,162.5-42.6,164.5-43.8,165.5z"/>
<g>
	<path fill="#43535F" d="M-55.5,176.7h-149.9c-1,0-2-0.4-2.7-1l-10.6-8.9c-1.4-1.1-1.8-3-1.2-4.6c0.6-1.7,2.2-2.8,3.9-2.8h72.4
		l0.7,0.8c0.9,1,2.3,1.5,3.6,1.5h17.5c1.3,0,2.7-0.6,3.6-1.5l0.7-0.8h72.4c1.8,0,3.3,1.1,3.9,2.7c0.6,1.7,0.1,3.5-1.2,4.6l-10.5,8.9
		C-53.4,176.4-54.4,176.7-55.5,176.7z M-205.1,171.7h149.3l8.7-7.3h-68.2c-1.8,1.5-4.1,2.3-6.4,2.3h-17.5c-2.3,0-4.6-0.8-6.4-2.3
		h-68.2L-205.1,171.7z"/>
</g>
<path fill="#D1E0E5" d="M-73,174.2h-18c-1.2,0-2.2-1.1-2.2-2.6v-40.9c0-1.4,1-2.6,2.2-2.6h18c1.2,0,2.2,1.1,2.2,2.6v40.9
	C-70.8,173-71.8,174.2-73,174.2z"/>
<rect x="-93.8" y="137.8" fill="#FFFFFF" width="22.3" height="25"/>
<g>
	<path fill="#43535F" d="M-69.8,163.7h-24.3v-27h24.3V163.7z M-92.1,161.7h20.3v-23h-20.3V161.7z"/>
</g>
<g>
	<path fill="#43535F" d="M-73.7,176.7h-17.9c-2.6,0-4.7-2.3-4.7-5.1v-40.9c0-2.8,2.1-5.1,4.7-5.1h17.9c2.6,0,4.7,2.3,4.7,5.1v40.9
		C-69,174.4-71,176.7-73.7,176.7z M-91.3,171.7H-74c0,0,0,0,0-0.1v-40.9c0,0,0-0.1,0-0.1h-17.3c0,0,0,0,0,0.1L-91.3,171.7
		C-91.3,171.6-91.3,171.6-91.3,171.7z"/>
</g>
<circle fill="#43535F" cx="-82.6" cy="168.1" r="2.6"/>
<path fill="#43535F" d="M-78.9,133.9c0,0.5-0.2,0.8-0.4,0.8H-86c-0.2,0-0.4-0.3-0.4-0.8l0,0c0-0.5,0.2-0.8,0.4-0.8h6.8
	C-79,133.1-78.9,133.4-78.9,133.9L-78.9,133.9z"/>
<g>
	
		<rect x="-160.9" y="92.9" transform="matrix(0.6247 0.7809 -0.7809 0.6247 26.744 166.0985)" fill="#43535F" width="3" height="35.9"/>
</g>
<g>
	<rect x="-151.8" y="88" transform="matrix(0.6245 0.781 -0.781 0.6245 37.187 162.3808)" fill="#43535F" width="3" height="63.7"/>
</g>
</svg>
