<?xml version="1.0" encoding="utf-8"?>
<!-- Generator: Adobe Illustrator 17.1.0, SVG Export Plug-In . SVG Version: 6.00 Build 0)  -->
<!DOCTYPE svg PUBLIC "-//W3C//DTD SVG 1.1//EN" "http://www.w3.org/Graphics/SVG/1.1/DTD/svg11.dtd">
<svg version="1.1" xmlns="http://www.w3.org/2000/svg" xmlns:xlink="http://www.w3.org/1999/xlink" x="0px" y="0px" width="181.7px"
	 height="101.1px" viewBox="52 57.4 181.7 101.1" enable-background="new 52 57.4 181.7 101.1" xml:space="preserve">
<g id="Layer_1">
	<path fill="#9EAEB7" d="M81.7,144.4v-69v2.5v-6.4c0-6.4,4.9-11.5,10.9-11.5h106.4c6,0,10.9,5.1,10.9,11.5v6.4v-2.5v69"/>
	<g>
		<path fill="#43535F" d="M213.3,144.4h-5V71.5c0-5-4.1-9-9-9H86.5c-5,0-9,4.1-9,9v72.9h-5V71.5c0-7.7,6.3-14,14-14h112.8
			c7.7,0,14,6.3,14,14V144.4z"/>
	</g>
	<path fill="#FFFFFF" d="M200.8,83.5v-4.9c0-4.9-4.4-8.8-9.8-8.8H94.8c-5.4,0-9.8,4-9.8,8.8v4.9v-1.9v53.5h115.8V81.6"/>
	<g>
		<path fill="#43535F" d="M202.3,136.6H83.4v-58c0-5.7,5.1-10.3,11.3-10.3h96.1c6.2,0,11.3,4.6,11.3,10.3V136.6z M86.4,133.6h112.8
			v-55c0-4-3.7-7.3-8.3-7.3H94.8c-4.6,0-8.3,3.3-8.3,7.3V133.6z"/>
	</g>
	<g>
		<path fill="#43535F" d="M217.8,158.6H67.9c-1,0-2-0.4-2.7-1l-10.6-8.9c-1.4-1.1-1.8-3-1.2-4.6c0.6-1.7,2.2-2.8,3.9-2.8h72.4
			l0.7,0.8c0.9,1,2.3,1.5,3.6,1.5h17.5c1.3,0,2.7-0.6,3.6-1.5l0.7-0.8h72.4c1.8,0,3.3,1.1,3.9,2.7c0.6,1.7,0.1,3.5-1.2,4.6
			l-10.5,8.9C219.9,158.2,218.9,158.6,217.8,158.6z M68.2,153.6h149.3l8.7-7.3H158c-1.8,1.5-4.1,2.3-6.4,2.3h-17.5
			c-2.3,0-4.6-0.8-6.4-2.3H59.5L68.2,153.6z"/>
	</g>
	<path fill="#D1E0E5" d="M200.3,156h-18c-1.2,0-2.2-1.1-2.2-2.6v-40.9c0-1.4,1-2.6,2.2-2.6h18c1.2,0,2.2,1.1,2.2,2.6v40.9
		C202.5,154.8,201.5,156,200.3,156z"/>
	<rect x="179.5" y="119.6" fill="#FFFFFF" width="22.3" height="25"/>
	<g>
		<path fill="#43535F" d="M203.5,145.5h-24.3v-27h24.3V145.5z M181.2,143.5h20.3v-23h-20.3V143.5z"/>
	</g>
	<g>
		<path fill="#43535F" d="M199.6,158.5h-17.9c-2.6,0-4.7-2.3-4.7-5.1v-40.9c0-2.8,2.1-5.1,4.7-5.1h17.9c2.6,0,4.7,2.3,4.7,5.1v40.9
			C204.3,156.3,202.3,158.5,199.6,158.5z M182,153.5h17.3c0,0,0,0,0-0.1v-40.9c0,0,0-0.1,0-0.1H182c0,0,0,0,0,0.1L182,153.5
			C182,153.4,182,153.5,182,153.5z"/>
	</g>
	<circle fill="#43535F" cx="190.7" cy="149.9" r="2.6"/>
	<path fill="#43535F" d="M194.4,115.8c0,0.5-0.2,0.8-0.4,0.8h-6.8c-0.2,0-0.4-0.3-0.4-0.8l0,0c0-0.5,0.2-0.8,0.4-0.8h6.8
		C194.3,115,194.4,115.2,194.4,115.8L194.4,115.8z"/>
	<g>
		
			<rect x="112.4" y="74.8" transform="matrix(0.6247 0.7809 -0.7809 0.6247 115.1313 -54.1344)" fill="#43535F" width="3" height="35.9"/>
	</g>
	<g>
		
			<rect x="121.5" y="69.9" transform="matrix(0.6245 0.781 -0.781 0.6245 125.6154 -57.8897)" fill="#43535F" width="3" height="63.7"/>
	</g>
</g>
<g id="Layer_2">
</g>
</svg>
