<?xml version="1.0" encoding="utf-8"?>
<!-- Generator: Adobe Illustrator 17.1.0, SVG Export Plug-In . SVG Version: 6.00 Build 0)  -->
<!DOCTYPE svg PUBLIC "-//W3C//DTD SVG 1.1//EN" "http://www.w3.org/Graphics/SVG/1.1/DTD/svg11.dtd">
<svg version="1.1" id="Layer_1" xmlns="http://www.w3.org/2000/svg" xmlns:xlink="http://www.w3.org/1999/xlink" x="0px" y="0px"
	 viewBox="0 502 468 470" enable-background="new 0 502 468 470" xml:space="preserve">
<g id="Layer_3">
	<circle fill="#FFFFFF" cx="234" cy="733.7" r="227.4"/>
	<circle fill="none" stroke="#879999" stroke-width="10.1862" stroke-miterlimit="10" cx="234" cy="737.1" r="227.4"/>
	<path fill="#C8D7D4" stroke="#879999" stroke-width="10.1465" stroke-miterlimit="10" d="M85.6,815.2V665.1v5.5v-14
		c0-13.9,11.2-25.1,25.1-25.1h245.5c13.9,0,25.1,11.2,25.1,25.1v14v-5.5v150.1"/>
	<path fill="#FFFFFF" stroke="#879999" stroke-width="6.5591" stroke-miterlimit="10" d="M359.5,682.8v-10.7
		c0-10.6-9.6-19.2-21.4-19.2H128.9c-11.8,0-21.4,8.6-21.4,19.2v10.7v-4.2v116.5h252V678.6"/>
	<path fill="#EDEDED" stroke="#879999" stroke-width="10.1465" stroke-miterlimit="10" d="M422,821.7l-23,19.4
		c-0.6,0.6-1.5,0.9-2.4,0.9H70.4c-0.9,0-1.7-0.3-2.4-0.9l-23-19.4c-2.6-2.2-1-6.5,2.4-6.5h155.3c3,3.1,7.3,5,11.8,5h38.1
		c4.5,0,8.8-1.9,11.8-5h155.3C423,815.2,424.6,819.5,422,821.7z"/>
	<line fill="none" stroke="#879999" stroke-width="6.5591" stroke-miterlimit="10" x1="159.2" y1="770.4" x2="307.8" y2="679"/>
	<line fill="none" stroke="#879999" stroke-width="6.5591" stroke-miterlimit="10" x1="171.2" y1="728.6" x2="247.1" y2="681.8"/>
	<path fill="#EDEDED" d="M358.5,840.5h-39.1c-2.6,0-4.8-2.5-4.8-5.6v-89.1c0-3.1,2.1-5.6,4.8-5.6h39.1c2.6,0,4.8,2.5,4.8,5.6v89.1
		C363.3,838,361.1,840.5,358.5,840.5z"/>
	
		<rect x="313.2" y="761.3" fill="#FFFFFF" stroke="#879999" stroke-width="4.2474" stroke-miterlimit="10" width="48.6" height="54.3"/>
	<path fill="none" stroke="#879999" stroke-width="10.1465" stroke-miterlimit="10" d="M357,840.5h-39c-2.6,0-4.8-2.5-4.8-5.6v-89.1
		c0-3.1,2.1-5.6,4.8-5.6h39c2.6,0,4.8,2.5,4.8,5.6v89.1C361.8,838,359.7,840.5,357,840.5z"/>
	<line fill="none" stroke="#879999" stroke-width="4.2474" stroke-miterlimit="10" x1="326.1" y1="802" x2="351.9" y2="786.1"/>
	<line fill="none" stroke="#879999" stroke-width="4.2474" stroke-miterlimit="10" x1="329" y1="788.4" x2="341.3" y2="780.9"/>
	<circle fill="none" stroke="#879999" stroke-width="4.2474" stroke-miterlimit="10" cx="337.5" cy="827.3" r="5.7"/>
	<path fill="none" stroke="#879999" stroke-width="6.5832" stroke-miterlimit="10" d="M345.7,753c0,0.2-0.4,0.3-0.8,0.3h-14.8
		c-0.5,0-0.8-0.1-0.8-0.3l0,0c0-0.2,0.4-0.3,0.8-0.3h14.8C345.4,752.7,345.7,752.8,345.7,753L345.7,753z"/>
</g>
</svg>
